# This file uses centimeters as units for non-parametric coordinates.

mtllib Rock_A.mtl
g default
v -31.243852 -22.285622 4.239638
v 15.739625 -22.285622 4.239638
v -22.785802 16.239805 4.239638
v 15.952385 16.018703 4.178369
v -19.200155 2.186309 -21.615402
v 11.405352 2.186309 -24.485748
v -19.200155 -22.321127 -21.615402
v 11.405352 -22.321127 -24.485748
v -4.560948 22.321127 4.239638
v -4.560948 8.267638 -28.293246
v -4.560948 -22.321127 -34.741711
v -4.560948 -22.285622 4.239638
v -14.063014 -22.286439 25.738083
v 5.816515 -22.286439 34.741702
v 5.816515 -0.465722 31.184805
v -14.063014 -3.440586 25.738083
v 15.739625 -22.286439 31.184805
v 13.020153 -3.440586 25.418629
v 15.739625 -13.300552 31.184805
v 5.816515 -11.882108 34.741687
v -14.063014 -13.300552 25.738083
v -31.243852 -3.916329 4.239638
v -19.200155 -10.635741 -21.615402
v -4.560948 -7.736109 -34.741711
v 11.405352 -10.635741 -24.485748
v 20.205669 -4.021747 4.210422
v 26.096502 -22.318923 -16.937634
v 31.184383 -22.298097 1.844599
v 26.096502 -15.467084 -16.937634
v 31.243855 -11.588883 1.827478
v 26.819792 -17.029621 17.644134
v 26.819792 -22.298567 17.644134
vt 0.498365 0.401026
vt 0.661855 0.360563
vt 0.668591 0.434197
vt 0.516227 0.461810
vt 0.522782 0.390671
vt 0.377322 0.427520
vt 0.380035 0.198580
vt 0.481916 0.201781
vt 0.515204 0.123867
vt 0.382601 0.096737
vt 0.390419 0.002000
vt 0.543301 0.051974
vt 0.007360 0.681559
vt 0.069436 0.545723
vt 0.187781 0.817133
vt 0.002000 0.898141
vt 0.002000 0.126936
vt 0.119570 0.055362
vt 0.135988 0.097640
vt 0.040630 0.193546
vt 0.717952 0.162147
vt 0.650457 0.277155
vt 0.217069 0.383079
vt 0.277154 0.184782
vt 0.248844 0.104971
vt 0.238883 0.024691
vt 0.211739 0.568657
vt 0.329126 0.755501
vt 0.747008 0.365400
vt 0.740572 0.428006
vt 0.352638 0.998000
vt 0.186891 0.995665
vt 0.624214 0.763141
vt 0.478137 0.731402
vt 0.537492 0.528224
vt 0.674773 0.514239
vt 0.365005 0.605574
vt 0.313708 0.479316
vt 0.410930 0.943109
vt 0.983405 0.442797
vt 0.955926 0.516663
vt 0.862440 0.435684
vt 0.872988 0.399733
vt 0.784306 0.711177
vt 0.737463 0.511324
vt 0.105218 0.270285
vt 0.877137 0.581614
vt 0.336943 0.576610
vt 0.429389 0.691936
vt 0.446967 0.815192
vn -0.412567 0.000000 0.910927
vn -0.179782 0.000000 0.983706
vn -0.119680 0.140817 0.982775
vn -0.383910 0.077302 0.920129
vn -0.390421 0.902545 0.181616
vn -0.036536 0.992635 0.115507
vn 0.013107 0.895839 -0.444185
vn -0.388807 0.820584 -0.418893
vn -0.633970 0.081969 -0.769001
vn -0.087638 0.118216 -0.989113
vn -0.093375 0.000000 -0.995631
vn -0.667587 0.000000 -0.744532
vn 0.000370 -0.999999 0.001164
vn 0.000012 -0.999999 0.001113
vn 0.000024 -1.000000 0.000600
vn 0.000223 -1.000000 0.000678
vn 0.999428 -0.003551 -0.033643
vn 0.964883 -0.003523 -0.262657
vn 0.964883 -0.003523 -0.262657
vn 0.998902 -0.003554 -0.046707
vn -0.906478 0.000000 -0.422252
vn -0.996903 0.000000 0.078639
vn -0.984356 0.152586 0.088096
vn -0.910725 0.104922 -0.399465
vn -0.036536 0.992635 0.115507
vn 0.398400 0.916860 0.025412
vn 0.330581 0.849309 -0.411571
vn 0.013107 0.895839 -0.444185
vn -0.093375 0.000000 -0.995631
vn -0.087638 0.118216 -0.989113
vn 0.497243 0.091640 -0.862758
vn 0.540456 0.000000 -0.841372
vn 0.000024 -1.000000 0.000600
vn 0.000012 -0.999999 0.001113
vn -0.000302 -0.999999 0.001068
vn -0.000168 -1.000000 0.000577
vn -0.119680 0.140817 0.982775
vn -0.179782 0.000000 0.983706
vn 0.337423 0.000000 0.941353
vn 0.435809 0.198357 0.877910
vn 0.000223 -1.000000 0.000678
vn 0.000024 -1.000000 0.000600
vn 0.000001 -1.000000 -0.000030
vn 0.000007 -1.000000 -0.000035
vn -0.036536 0.992635 0.115507
vn -0.390421 0.902545 0.181616
vn -0.259020 0.673382 0.692434
vn -0.259020 0.673382 0.692434
vn -0.984356 0.152586 0.088096
vn -0.996903 0.000000 0.078639
vn -0.781187 0.000000 0.624298
vn -0.778884 0.091695 0.620429
vn 0.000024 -1.000000 0.000600
vn -0.000168 -1.000000 0.000577
vn -0.000003 -1.000000 -0.000028
vn 0.000001 -1.000000 -0.000030
vn 0.999428 -0.003551 -0.033643
vn 0.998902 -0.003554 -0.046707
vn 0.963609 -0.003300 0.267296
vn 0.963609 -0.003300 0.267296
vn 0.398400 0.916860 0.025412
vn -0.036536 0.992635 0.115507
vn 0.365554 0.727157 0.581045
vn 0.365554 0.727157 0.581045
vn -0.075473 0.259511 0.962787
vn -0.119680 0.140817 0.982775
vn 0.435809 0.198357 0.877910
vn 0.515258 0.398366 0.758824
vn -0.383910 0.077302 0.920129
vn -0.119680 0.140817 0.982775
vn -0.075473 0.259511 0.962787
vn -0.352512 0.154303 0.922998
vn -0.963099 0.256947 0.080118
vn -0.984356 0.152586 0.088096
vn -0.778884 0.091695 0.620429
vn -0.765135 0.215603 0.606699
vn -0.910725 0.104922 -0.399465
vn -0.984356 0.152586 0.088096
vn -0.963099 0.256947 0.080118
vn -0.901658 0.231252 -0.365424
vn -0.588058 0.176572 -0.789310
vn -0.104286 0.217118 -0.970559
vn -0.087638 0.118216 -0.989113
vn -0.633970 0.081969 -0.769001
vn 0.497243 0.091640 -0.862758
vn -0.087638 0.118216 -0.989113
vn -0.104286 0.217118 -0.970559
vn 0.440874 0.195947 -0.875919
vn 0.980338 0.196191 -0.021127
vn 0.955911 0.123461 -0.266442
vn 0.955911 0.123461 -0.266442
vn 0.980621 0.182224 -0.071952
vn 0.913733 0.271672 0.302136
vn 0.980338 0.196191 -0.021127
vn 0.980621 0.182224 -0.071952
vn 0.913733 0.271672 0.302136
vn -0.000562 -0.999999 0.001297
vn -0.000562 -0.999999 0.001297
vn -0.000562 -0.999999 0.001297
vn -0.000562 -0.999999 0.001297
vn 0.456998 0.000000 -0.889468
vn 0.456998 0.000000 -0.889468
vn 0.456998 0.000000 -0.889468
vn 0.456998 0.000000 -0.889468
vn 0.462634 0.827234 -0.318832
vn 0.462634 0.827234 -0.318832
vn 0.462634 0.827234 -0.318832
vn 0.462634 0.827234 -0.318832
vn 0.619009 0.694159 0.367384
vn 0.619009 0.694159 0.367384
vn 0.619009 0.694159 0.367384
vn 0.619009 0.694159 0.367384
vn 0.773917 0.000000 0.633287
vn 0.773917 0.000000 0.633287
vn 0.773917 0.000000 0.633287
vn 0.773917 0.000000 0.633287
vn -0.001007 -1.000000 -0.000133
vn -0.001007 -1.000000 -0.000133
vn -0.001007 -1.000000 -0.000133
vn -0.001007 -1.000000 -0.000133
s off
g RockA:pCube1
usemtl RockA:lambert2SG
f 13/1/1 14/2/2 20/3/3 21/4/4
f 3/5/5 9/6/6 10/7/7 5/8/8
f 23/9/9 24/10/10 11/11/11 7/12/12
f 7/13/13 11/14/14 12/15/15 1/16/16
f 28/17/17 27/18/18 29/19/19 30/20/20
f 7/12/21 1/21/22 22/22/23 23/9/24
f 9/6/25 4/23/26 6/24/27 10/7/28
f 11/11/29 24/10/30 25/25/31 8/26/32
f 12/15/33 11/14/34 8/27/35 2/28/36
f 20/3/37 14/2/38 17/29/39 19/30/40
f 1/16/41 12/15/42 14/31/43 13/32/44
f 9/33/45 3/34/46 16/35/47 15/36/48
f 22/37/49 1/38/50 13/1/51 21/4/52
f 12/15/53 2/28/54 17/39/55 14/31/56
f 28/40/57 30/41/58 31/42/59 32/43/60
f 4/44/61 9/33/62 15/36/63 18/45/64
f 15/36/65 20/3/66 19/30/67 18/45/68
f 21/4/69 20/3/70 15/36/71 16/35/72
f 3/34/73 22/37/74 21/4/75 16/35/76
f 23/9/77 22/22/78 3/5/79 5/8/80
f 5/8/81 10/7/82 24/10/83 23/9/84
f 25/25/85 24/10/86 10/7/87 6/24/88
f 26/46/89 25/25/90 6/24/91 4/23/92
f 19/30/93 26/47/94 4/44/95 18/45/96
f 2/28/97 8/27/98 27/48/99 28/49/100
f 8/26/101 25/25/102 29/19/103 27/18/104
f 25/25/105 26/46/106 30/20/107 29/19/108
f 26/47/109 19/30/110 31/42/111 30/41/112
f 19/30/113 17/29/114 32/43/115 31/42/116
f 17/39/117 2/28/118 28/49/119 32/50/120
