# This file uses centimeters as units for non-parametric coordinates.

mtllib 1st_Structure.mtl
g default
v -36.715504 -60.176418 13.562640
v -28.966896 -67.925026 13.562640
v -28.966896 -60.176418 21.311247
v 28.966896 -67.925026 13.562640
v 36.715504 -60.176418 13.562640
v 28.966896 -60.176418 21.311247
v -28.966896 54.578041 14.061553
v -36.715504 46.484444 13.562640
v -28.966896 44.093956 21.311247
v 36.715504 14.163404 13.562640
v 28.966896 22.257002 14.061553
v 28.966896 11.772917 21.311247
v -28.966896 60.176414 -21.311247
v -36.715504 56.719437 -13.562640
v -28.966896 65.189545 -14.061553
v 36.715504 24.398397 -13.562640
v 28.966896 27.855375 -21.311247
v 28.966896 32.868507 -14.061553
v -28.966896 -67.925026 -13.562640
v -36.715504 -60.176418 -13.562640
v -28.966896 -60.176418 -21.311247
v 36.715504 -60.176418 -13.562640
v 28.966896 -67.925026 -13.562640
v 28.966896 -60.176418 -21.311247
vt 0.370891 0.010872
vt 0.294223 0.205171
vt 0.198372 0.199992
vt 0.106048 0.002000
vt 0.162860 0.223134
vt 0.128623 0.517884
vt 0.023014 0.790439
vt 0.002000 0.044031
vt 0.752260 0.850260
vt 0.555573 0.918440
vt 0.560322 0.080340
vt 0.754893 0.079909
vt 0.283787 0.260797
vt 0.285123 0.571907
vt 0.170132 0.524545
vt 0.197754 0.229148
vt 0.164630 0.567105
vt 0.302011 0.608610
vt 0.386450 0.855063
vt 0.121063 0.841411
vt 0.330045 0.576034
vt 0.317229 0.237370
vt 0.480304 0.037943
vt 0.458728 0.831456
vt 0.764113 0.004951
vt 0.551087 0.002000
vt 0.832332 0.070255
vt 0.832166 0.841385
vt 0.768713 0.930192
vt 0.542541 0.998000
vt 0.478614 0.953228
vt 0.481289 0.069643
vn 0.000000 -1.000000 0.000000
vn 0.000000 -1.000000 0.000000
vn 0.000000 -1.000000 0.000000
vn 0.000000 -1.000000 0.000000
vn 0.000000 0.000000 1.000000
vn 0.000000 0.000000 1.000000
vn 0.000000 0.000000 1.000000
vn 0.000000 0.000000 1.000000
vn -1.000000 0.000000 0.000000
vn -1.000000 0.000000 0.000000
vn -1.000000 0.000000 0.000000
vn -1.000000 0.000000 0.000000
vn 1.000000 0.000000 0.000000
vn 1.000000 0.000000 0.000000
vn 1.000000 0.000000 0.000000
vn 1.000000 0.000000 0.000000
vn 0.462730 0.829420 0.312959
vn 0.462730 0.829420 0.312959
vn 0.462730 0.829420 0.312959
vn 0.462730 0.829420 0.312959
vn 0.000000 0.000000 -1.000000
vn 0.000000 0.000000 -1.000000
vn 0.000000 0.000000 -1.000000
vn 0.000000 0.000000 -1.000000
s 1
g first_structure:pCube1
usemtl first_structure:initialShadingGroup
f 19/1/1 23/2/2 4/3/3 2/4/4
f 6/5/5 12/6/6 9/7/7 3/8/8
f 8/9/9 14/10/10 20/11/11 1/12/12
f 22/13/13 16/14/14 10/15/15 5/16/16
f 11/17/17 18/18/18 15/19/19 7/20/20
f 17/21/21 24/22/22 21/23/23 13/24/24
f 2/25/4 1/12/12 20/11/11 19/26/1
f 3/8/8 2/4/4 4/3/3 6/5/5
f 1/12/12 3/27/8 9/28/7 8/9/9
f 5/16/16 4/3/3 23/2/2 22/13/13
f 6/5/5 5/16/16 10/15/15 12/6/6
f 8/9/9 7/29/20 15/30/19 14/10/10
f 7/20/20 9/7/7 12/6/6 11/17/17
f 11/17/17 10/15/15 16/14/14 18/18/18
f 14/10/10 13/31/24 21/32/23 20/11/11
f 13/24/24 15/19/19 18/18/18 17/21/21
f 17/21/21 16/14/14 22/13/13 24/22/22
f 19/1/1 21/23/23 24/22/22 23/2/2
f 1/12/12 2/25/4 3/27/8
f 4/3/3 5/16/16 6/5/5
f 7/29/20 8/9/9 9/28/7
f 10/15/15 11/17/17 12/6/6
f 13/31/24 14/10/10 15/30/19
f 16/14/14 17/21/21 18/18/18
f 19/26/1 20/11/11 21/32/23
f 22/13/13 23/2/2 24/22/22
