# This file uses centimeters as units for non-parametric coordinates.

mtllib 4th_Structure_Pebble.mtl
g default
v -24.284140 -12.011047 15.563418
v -12.512847 -23.782343 15.563418
v -12.512847 -12.011047 27.334721
v 14.254281 -23.782343 15.563418
v 26.025581 -12.011047 15.563418
v 14.254281 -12.011047 27.334721
v -12.512847 26.527382 15.563418
v -24.284140 14.756079 15.563418
v -12.512847 14.756079 27.334721
v 26.025581 14.756079 15.563418
v 14.254281 26.527382 15.563418
v 14.254281 14.756079 27.334721
v -12.512847 14.756079 -22.975004
v -24.284140 14.756079 -11.203714
v -12.512847 26.527382 -11.203714
v 26.025581 14.756079 -11.203714
v 14.254281 14.756079 -22.975004
v 14.254281 26.527382 -11.203714
v -12.512847 -23.782343 -11.203714
v -24.284140 -12.011047 -11.203714
v -12.512847 -12.011047 -22.975004
v 26.025581 -12.011047 -11.203714
v 14.254281 -23.782343 -11.203714
v 14.254281 -12.011047 -22.975004
vt 0.369990 0.121752
vt 0.207524 0.139257
vt 0.139606 0.002000
vt 0.424687 0.020203
vt 0.825862 0.598255
vt 0.824739 0.844080
vt 0.579907 0.840831
vt 0.579133 0.595260
vt 0.550767 0.425112
vt 0.449806 0.369912
vt 0.431850 0.207528
vt 0.569313 0.139887
vt 0.121746 0.201249
vt 0.139508 0.363556
vt 0.002000 0.431220
vt 0.020171 0.146665
vt 0.146130 0.550738
vt 0.201307 0.449507
vt 0.363724 0.432000
vt 0.431001 0.569621
vt 0.215926 0.356395
vt 0.214928 0.215480
vt 0.355423 0.215143
vt 0.356683 0.355772
vt 0.561802 0.446349
vt 0.843934 0.441346
vt 0.431367 0.574666
vt 0.422544 0.860032
vt 0.973948 0.576238
vt 0.982026 0.860188
vt 0.558996 0.998000
vt 0.845958 0.991685
vn -0.243513 -0.938831 -0.243513
vn 0.243513 -0.938831 -0.243513
vn 0.243513 -0.938831 0.243513
vn -0.243513 -0.938831 0.243513
vn 0.243513 -0.243513 0.938831
vn 0.243513 0.243513 0.938831
vn -0.243513 0.243513 0.938831
vn -0.243513 -0.243513 0.938831
vn -0.938831 0.243513 0.243513
vn -0.938831 0.243513 -0.243513
vn -0.938831 -0.243513 -0.243513
vn -0.938831 -0.243513 0.243513
vn 0.938831 -0.243513 -0.243513
vn 0.938831 0.243513 -0.243513
vn 0.938831 0.243513 0.243513
vn 0.938831 -0.243513 0.243513
vn 0.243513 0.938831 0.243513
vn 0.243513 0.938831 -0.243513
vn -0.243513 0.938831 -0.243513
vn -0.243513 0.938831 0.243513
vn 0.243513 0.243513 -0.938831
vn 0.243513 -0.243513 -0.938831
vn -0.243513 -0.243513 -0.938831
vn -0.243513 0.243513 -0.938831
s 1
g pCube3
usemtl initialShadingGroup
f 19/1/1 23/2/2 4/3/3 2/4/4
f 6/5/5 12/6/6 9/7/7 3/8/8
f 8/9/9 14/10/10 20/11/11 1/12/12
f 22/13/13 16/14/14 10/15/15 5/16/16
f 11/17/17 18/18/18 15/19/19 7/20/20
f 17/21/21 24/22/22 21/23/23 13/24/24
f 2/4/4 1/12/12 20/11/11 19/1/1
f 3/8/8 2/25/4 4/26/3 6/5/5
f 1/27/12 3/8/8 9/7/7 8/28/9
f 5/16/16 4/3/3 23/2/2 22/13/13
f 6/5/5 5/29/16 10/30/15 12/6/6
f 8/9/9 7/20/20 15/19/19 14/10/10
f 7/31/20 9/7/7 12/6/6 11/32/17
f 11/17/17 10/15/15 16/14/14 18/18/18
f 14/10/10 13/24/24 21/23/23 20/11/11
f 13/24/24 15/19/19 18/18/18 17/21/21
f 17/21/21 16/14/14 22/13/13 24/22/22
f 19/1/1 21/23/23 24/22/22 23/2/2
f 1/27/12 2/25/4 3/8/8
f 4/26/3 5/29/16 6/5/5
f 7/31/20 8/28/9 9/7/7
f 10/30/15 11/32/17 12/6/6
f 13/24/24 14/10/10 15/19/19
f 16/14/14 17/21/21 18/18/18
f 19/1/1 20/11/11 21/23/23
f 22/13/13 23/2/2 24/22/22
