# This file uses centimeters as units for non-parametric coordinates.

mtllib gear.mtl
g default
v 14.352993 0.000000 131.124008
v 13.260438 5.492655 131.124008
v 10.149099 10.149098 131.124023
v 5.492650 13.260438 131.124023
v 0.000000 14.352993 131.124008
v -5.492655 13.260438 131.124023
v -10.149099 10.149094 131.124023
v -13.260438 5.492650 131.124008
v -14.352993 -0.000006 131.124008
v -13.260432 -5.492655 131.124023
v -10.149094 -10.149105 131.124008
v -5.492644 -13.260438 131.124008
v 0.000006 -14.352993 131.124008
v 5.492661 -13.260432 131.124008
v 10.149105 -10.149094 131.124008
v 13.260438 -5.492644 131.124023
v 14.352993 0.000000 145.477005
v 13.260438 5.492655 145.477005
v 10.149099 10.149099 145.477020
v 5.492650 13.260438 145.477020
v 0.000000 14.352993 145.477005
v -5.492655 13.260438 145.477020
v -10.149099 10.149094 145.477020
v -13.260438 5.492650 145.477005
v -14.352993 -0.000006 145.477005
v -13.260432 -5.492656 145.477005
v -10.149094 -10.149105 145.477005
v -5.492644 -13.260438 145.477005
v 0.000006 -14.352994 145.477005
v 5.492661 -13.260432 145.477005
v 10.149105 -10.149094 145.477005
v 13.260438 -5.492643 145.477005
v 28.705986 0.000000 145.477005
v 26.520876 10.985305 145.477005
v 20.298199 20.298199 145.477005
v 10.985304 26.520878 145.477005
v -0.000006 28.705986 145.477005
v -10.985311 26.520870 145.477005
v -20.298206 20.298191 145.477005
v -26.520876 10.985299 145.477005
v -28.705986 -0.000011 145.477005
v -26.520870 -10.985316 145.477005
v -20.298187 -20.298206 145.477005
v -10.985292 -26.520878 145.477005
v 0.000017 -28.705986 145.477005
v 10.985321 -26.520866 145.477005
v 20.298210 -20.298187 145.477020
v 26.520882 -10.985288 145.477020
v 28.705986 0.000000 131.124008
v 26.520876 10.985305 131.124008
v 20.298199 20.298199 131.124008
v 10.985304 26.520878 131.124008
v -0.000006 28.705988 131.124008
v -10.985311 26.520872 131.124008
v -20.298206 20.298193 131.124008
v -26.520876 10.985299 131.124008
v -28.705986 -0.000011 131.124008
v -26.520870 -10.985316 131.124023
v -20.298187 -20.298204 131.124008
v -10.985292 -26.520876 131.124008
v 0.000017 -28.705986 131.124023
v 10.985321 -26.520864 131.124008
v 20.298210 -20.298185 131.124023
v 26.520882 -10.985288 131.124023
v 37.798767 1.808666 145.477005
v 35.613651 12.793971 145.477005
v 37.798767 1.808667 131.124008
v 35.613651 12.793971 131.124008
v 25.448845 28.006691 145.477005
v 16.135950 34.229362 145.477005
v 25.448845 28.006693 131.124008
v 16.135950 34.229362 131.124008
v -1.808672 37.798771 145.477020
v -12.793983 35.613651 145.477005
v -1.808672 37.798771 131.124023
v -12.793983 35.613651 131.124023
v -28.006693 25.448841 145.477005
v -34.229370 16.135941 145.477020
v -28.006693 25.448841 131.124008
v -34.229370 16.135941 131.124023
v -37.798767 -1.808678 145.477005
v -35.613651 -12.793988 145.477005
v -37.798767 -1.808678 131.124008
v -35.613651 -12.793988 131.124023
v -25.448833 -28.006699 145.477020
v -16.135933 -34.229366 145.477020
v -25.448833 -28.006697 131.124023
v -16.135933 -34.229366 131.124023
v 1.808684 -37.798767 145.477005
v 12.793987 -35.613647 145.477005
v 1.808684 -37.798767 131.124008
v 12.793987 -35.613647 131.124008
v 28.006699 -25.448830 145.477005
v 34.229370 -16.135933 145.477005
v 28.006699 -25.448828 131.124008
v 34.229370 -16.135933 131.124008
vt 0.828649 0.762125
vt 0.838205 0.704242
vt 0.983671 0.707429
vt 0.955344 0.817939
vt 0.796633 0.812234
vt 0.888759 0.908736
vt 0.748043 0.847011
vt 0.793444 0.966424
vt 0.689235 0.855094
vt 0.686155 0.998000
vt 0.630317 0.845842
vt 0.578250 0.970159
vt 0.578640 0.814664
vt 0.490222 0.903052
vt 0.547903 0.763469
vt 0.423097 0.814990
vt 0.539078 0.704707
vt 0.395141 0.707019
vt 0.545839 0.645071
vt 0.426096 0.599016
vt 0.581114 0.596835
vt 0.483369 0.502733
vt 0.632263 0.566234
vt 0.573533 0.435222
vt 0.689103 0.549661
vt 0.686179 0.422400
vt 0.747195 0.563873
vt 0.798224 0.438635
vt 0.794922 0.599327
vt 0.896484 0.496777
vt 0.830415 0.645901
vt 0.952819 0.596712
vt 0.011264 0.408024
vt 0.002000 0.292924
vt 0.040974 0.290877
vt 0.062060 0.395096
vt 0.082142 0.498184
vt 0.111518 0.467040
vt 0.180694 0.556941
vt 0.200568 0.527245
vt 0.291209 0.571142
vt 0.285235 0.547589
vt 0.405309 0.563151
vt 0.392266 0.520491
vt 0.491360 0.491377
vt 0.466335 0.473677
vt 0.565686 0.404367
vt 0.522225 0.381064
vt 0.578933 0.293288
vt 0.543672 0.294475
vt 0.546880 0.185314
vt 0.517975 0.190644
vt 0.497018 0.086254
vt 0.467248 0.123324
vt 0.396812 0.034807
vt 0.380865 0.061131
vt 0.291409 0.002000
vt 0.296977 0.050788
vt 0.184222 0.035505
vt 0.189804 0.063186
vt 0.086725 0.086902
vt 0.121532 0.117230
vt 0.035078 0.186780
vt 0.058473 0.203964
vt 0.085031 0.349994
vt 0.057046 0.309703
vt 0.119942 0.308610
vt 0.122473 0.355063
vt 0.152482 0.359254
vt 0.175415 0.395662
vt 0.184326 0.495003
vt 0.144670 0.461653
vt 0.181580 0.438503
vt 0.221844 0.452092
vt 0.236304 0.439896
vt 0.283258 0.446584
vt 0.360746 0.508667
vt 0.313951 0.504829
vt 0.306226 0.469891
vt 0.348765 0.449501
vt 0.353265 0.431860
vt 0.391744 0.408063
vt 0.491260 0.400062
vt 0.460793 0.439272
vt 0.434273 0.402590
vt 0.450502 0.362774
vt 0.438552 0.348691
vt 0.447800 0.303560
vt 0.480694 0.233608
vt 0.520499 0.265259
vt 0.467052 0.293595
vt 0.463181 0.248940
vt 0.432826 0.234491
vt 0.405579 0.195041
vt 0.394020 0.095659
vt 0.414351 0.123703
vt 0.413274 0.159659
vt 0.359172 0.151145
vt 0.344878 0.156683
vt 0.300405 0.146694
vt 0.224457 0.077397
vt 0.275940 0.076397
vt 0.266037 0.119462
vt 0.227957 0.136015
vt 0.226838 0.154876
vt 0.189420 0.180939
vt 0.077998 0.193027
vt 0.120834 0.150451
vt 0.144969 0.181671
vt 0.135071 0.214429
vt 0.145780 0.243161
vt 0.138931 0.286305
vt 0.214523 0.294386
vt 0.219692 0.324042
vt 0.235600 0.348305
vt 0.260897 0.365511
vt 0.289777 0.371011
vt 0.319613 0.365091
vt 0.344900 0.349304
vt 0.363136 0.324816
vt 0.368986 0.296862
vt 0.363291 0.267527
vt 0.346371 0.243813
vt 0.320710 0.227079
vt 0.291841 0.220398
vt 0.262000 0.225470
vt 0.237434 0.240940
vt 0.220403 0.265995
vn -0.923880 -0.382683 -0.000000
vn -1.000000 0.000000 0.000000
vn -1.000000 0.000000 0.000000
vn -0.923880 -0.382683 -0.000000
vn -0.707107 -0.707107 -0.000000
vn -0.923880 -0.382683 -0.000000
vn -0.923880 -0.382683 -0.000000
vn -0.707107 -0.707107 -0.000000
vn -0.382683 -0.923880 -0.000000
vn -0.707107 -0.707107 -0.000000
vn -0.707107 -0.707107 -0.000000
vn -0.382683 -0.923880 -0.000000
vn 0.000000 -1.000000 -0.000000
vn -0.382683 -0.923880 -0.000000
vn -0.382683 -0.923880 -0.000000
vn 0.000000 -1.000000 -0.000000
vn 0.382684 -0.923879 -0.000000
vn 0.000000 -1.000000 -0.000000
vn 0.000000 -1.000000 -0.000000
vn 0.382684 -0.923879 -0.000000
vn 0.707107 -0.707107 -0.000000
vn 0.382684 -0.923879 -0.000000
vn 0.382684 -0.923879 -0.000000
vn 0.707107 -0.707107 -0.000000
vn 0.923880 -0.382683 -0.000000
vn 0.707107 -0.707107 -0.000000
vn 0.707107 -0.707107 -0.000000
vn 0.923880 -0.382683 -0.000000
vn 1.000000 0.000000 0.000000
vn 0.923880 -0.382683 -0.000000
vn 0.923880 -0.382683 -0.000000
vn 1.000000 0.000000 0.000000
vn 0.923879 0.382684 0.000000
vn 1.000000 0.000000 0.000000
vn 1.000000 0.000000 0.000000
vn 0.923879 0.382684 0.000000
vn 0.707106 0.707107 0.000000
vn 0.923879 0.382684 0.000000
vn 0.923879 0.382684 0.000000
vn 0.707106 0.707107 0.000000
vn 0.382683 0.923880 0.000000
vn 0.707106 0.707107 0.000000
vn 0.707106 0.707107 0.000000
vn 0.382683 0.923880 0.000000
vn -0.000001 1.000000 0.000000
vn 0.382683 0.923880 0.000000
vn 0.382683 0.923880 0.000000
vn -0.000001 1.000000 0.000000
vn -0.382684 0.923879 0.000000
vn -0.000001 1.000000 0.000000
vn -0.000001 1.000000 0.000000
vn -0.382684 0.923879 0.000000
vn -0.707107 0.707106 0.000000
vn -0.382684 0.923879 0.000000
vn -0.382684 0.923879 0.000000
vn -0.707107 0.707106 0.000000
vn -0.923880 0.382683 0.000000
vn -0.707107 0.707106 0.000000
vn -0.707107 0.707106 0.000000
vn -0.923880 0.382683 0.000000
vn -1.000000 0.000000 0.000000
vn -0.923880 0.382683 0.000000
vn -0.923880 0.382683 0.000000
vn -1.000000 0.000000 0.000000
vn 0.000000 -0.000000 1.000000
vn 0.000000 -0.000000 1.000000
vn 0.000000 -0.000000 1.000000
vn 0.000000 -0.000000 1.000000
vn 0.000000 -0.000000 1.000000
vn 0.000000 -0.000000 1.000000
vn 0.000000 -0.000000 1.000000
vn 0.000000 -0.000000 1.000000
vn 0.000000 -0.000000 1.000000
vn 0.000000 -0.000000 1.000000
vn 0.000000 -0.000000 1.000000
vn 0.000000 -0.000000 1.000000
vn 0.000000 -0.000000 1.000000
vn 0.000000 -0.000000 1.000000
vn 0.000000 -0.000000 1.000000
vn 0.000000 -0.000000 1.000000
vn 0.000000 -0.000000 1.000000
vn 0.000000 -0.000000 1.000000
vn 0.000000 -0.000000 1.000000
vn 0.000000 -0.000000 1.000000
vn 0.000000 -0.000000 1.000000
vn 0.000000 -0.000000 1.000000
vn 0.000000 -0.000000 1.000000
vn 0.000000 -0.000000 1.000000
vn 0.000000 -0.000000 1.000000
vn 0.000000 -0.000000 1.000000
vn 0.000000 -0.000000 1.000000
vn 0.000000 -0.000000 1.000000
vn 0.000000 -0.000000 1.000000
vn 0.000000 -0.000000 1.000000
vn 0.000000 -0.000000 1.000000
vn 0.000000 -0.000000 1.000000
vn 0.000000 -0.000000 1.000000
vn 0.000000 -0.000000 1.000000
vn 0.000000 -0.000000 1.000000
vn 0.000000 -0.000000 1.000000
vn 0.000000 -0.000000 1.000000
vn 0.000000 -0.000000 1.000000
vn 0.000000 -0.000000 1.000000
vn 0.000000 -0.000000 1.000000
vn 0.000000 -0.000000 1.000000
vn 0.000000 -0.000000 1.000000
vn 0.000000 -0.000000 1.000000
vn 0.000000 -0.000000 1.000000
vn 0.000000 -0.000000 1.000000
vn 0.000000 -0.000000 1.000000
vn 0.000000 -0.000000 1.000000
vn 0.000000 -0.000000 1.000000
vn 0.000000 -0.000000 1.000000
vn 0.000000 -0.000000 1.000000
vn 0.000000 -0.000000 1.000000
vn 0.000000 -0.000000 1.000000
vn 0.000000 -0.000000 1.000000
vn 0.000000 -0.000000 1.000000
vn 0.000000 -0.000000 1.000000
vn 0.000000 -0.000000 1.000000
vn 0.000000 -0.000000 1.000000
vn 0.000000 -0.000000 1.000000
vn 0.000000 -0.000000 1.000000
vn 0.000000 -0.000000 1.000000
vn 0.000000 -0.000000 1.000000
vn 0.000000 -0.000000 1.000000
vn 0.000000 -0.000000 1.000000
vn 0.000000 -0.000000 1.000000
vn 0.980785 0.195090 0.000000
vn 0.980785 0.195090 0.000000
vn 0.980785 0.195090 0.000000
vn 0.980785 0.195090 0.000000
vn 0.831470 0.555570 0.000000
vn 0.831470 0.555570 0.000000
vn 0.831470 0.555570 0.000000
vn 0.831470 0.555570 0.000000
vn 0.555570 0.831470 0.000000
vn 0.555570 0.831470 0.000000
vn 0.555570 0.831470 0.000000
vn 0.555570 0.831470 0.000000
vn 0.195090 0.980785 0.000000
vn 0.195090 0.980785 0.000000
vn 0.195090 0.980785 0.000000
vn 0.195090 0.980785 0.000000
vn -0.195090 0.980785 0.000000
vn -0.195090 0.980785 0.000000
vn -0.195090 0.980785 0.000000
vn -0.195090 0.980785 0.000000
vn -0.555570 0.831470 0.000000
vn -0.555570 0.831470 0.000000
vn -0.555570 0.831470 0.000000
vn -0.555570 0.831470 0.000000
vn -0.831470 0.555570 0.000000
vn -0.831470 0.555570 0.000000
vn -0.831470 0.555570 0.000000
vn -0.831470 0.555570 0.000000
vn -0.980785 0.195090 0.000000
vn -0.980785 0.195090 0.000000
vn -0.980785 0.195090 0.000000
vn -0.980785 0.195090 0.000000
vn -0.980785 -0.195091 -0.000000
vn -0.980785 -0.195091 -0.000000
vn -0.980785 -0.195091 -0.000000
vn -0.980785 -0.195091 -0.000000
vn -0.831470 -0.555570 -0.000000
vn -0.831470 -0.555570 -0.000000
vn -0.831470 -0.555570 -0.000000
vn -0.831470 -0.555570 -0.000000
vn -0.555570 -0.831470 -0.000000
vn -0.555570 -0.831470 -0.000000
vn -0.555570 -0.831470 -0.000000
vn -0.555570 -0.831470 -0.000000
vn -0.195090 -0.980785 -0.000000
vn -0.195090 -0.980785 -0.000000
vn -0.195090 -0.980785 -0.000000
vn -0.195090 -0.980785 -0.000000
vn 0.195091 -0.980785 -0.000000
vn 0.195091 -0.980785 -0.000000
vn 0.195091 -0.980785 -0.000000
vn 0.195091 -0.980785 -0.000000
vn 0.555571 -0.831469 -0.000000
vn 0.555571 -0.831469 -0.000000
vn 0.555571 -0.831469 -0.000000
vn 0.555571 -0.831469 -0.000000
vn 0.831470 -0.555570 -0.000000
vn 0.831470 -0.555570 -0.000000
vn 0.831470 -0.555570 -0.000000
vn 0.831470 -0.555570 -0.000000
vn 0.980785 -0.195090 -0.000000
vn 0.980785 -0.195090 -0.000000
vn 0.980785 -0.195090 -0.000000
vn 0.980785 -0.195090 -0.000000
vn 0.000000 0.000000 -1.000000
vn 0.000000 0.000000 -1.000000
vn 0.000000 0.000000 -1.000000
vn 0.000000 0.000000 -1.000000
vn 0.000000 0.000000 -1.000000
vn 0.000000 0.000000 -1.000000
vn 0.000000 0.000000 -1.000000
vn 0.000000 0.000000 -1.000000
vn 0.000000 0.000000 -1.000000
vn 0.000000 0.000000 -1.000000
vn 0.000000 0.000000 -1.000000
vn 0.000000 0.000000 -1.000000
vn 0.000000 0.000000 -1.000000
vn 0.000000 0.000000 -1.000000
vn 0.000000 0.000000 -1.000000
vn 0.000000 0.000000 -1.000000
vn 0.000000 0.000000 -1.000000
vn 0.000000 0.000000 -1.000000
vn 0.000000 0.000000 -1.000000
vn 0.000000 0.000000 -1.000000
vn 0.000000 0.000000 -1.000000
vn 0.000000 0.000000 -1.000000
vn 0.000000 0.000000 -1.000000
vn 0.000000 0.000000 -1.000000
vn 0.000000 0.000000 -1.000000
vn 0.000000 0.000000 -1.000000
vn 0.000000 0.000000 -1.000000
vn 0.000000 0.000000 -1.000000
vn 0.000000 0.000000 -1.000000
vn 0.000000 0.000000 -1.000000
vn 0.000000 0.000000 -1.000000
vn 0.000000 0.000000 -1.000000
vn 0.000000 0.000000 -1.000000
vn 0.000000 0.000000 -1.000000
vn 0.000000 0.000000 -1.000000
vn 0.000000 0.000000 -1.000000
vn 0.000000 0.000000 -1.000000
vn 0.000000 0.000000 -1.000000
vn 0.000000 0.000000 -1.000000
vn 0.000000 0.000000 -1.000000
vn 0.000000 0.000000 -1.000000
vn 0.000000 0.000000 -1.000000
vn 0.000000 0.000000 -1.000000
vn 0.000000 0.000000 -1.000000
vn 0.000000 0.000000 -1.000000
vn 0.000000 0.000000 -1.000000
vn 0.000000 0.000000 -1.000000
vn 0.000000 0.000000 -1.000000
vn 0.000000 0.000000 -1.000000
vn 0.000000 0.000000 -1.000000
vn 0.000000 0.000000 -1.000000
vn 0.000000 0.000000 -1.000000
vn 0.000000 0.000000 -1.000000
vn 0.000000 0.000000 -1.000000
vn 0.000000 0.000000 -1.000000
vn 0.000000 0.000000 -1.000000
vn 0.000000 0.000000 -1.000000
vn 0.000000 0.000000 -1.000000
vn 0.000000 0.000000 -1.000000
vn 0.000000 0.000000 -1.000000
vn 0.000000 0.000000 -1.000000
vn 0.000000 0.000000 -1.000000
vn 0.000000 0.000000 -1.000000
vn 0.000000 0.000000 -1.000000
vn 0.000000 -0.000000 1.000000
vn 0.000000 -0.000000 1.000000
vn 0.000000 -0.000000 1.000000
vn 0.000000 -0.000000 1.000000
vn 0.195090 -0.980785 -0.000000
vn 0.195090 -0.980785 -0.000000
vn 0.195090 -0.980785 -0.000000
vn 0.195090 -0.980785 -0.000000
vn 0.000000 0.000000 -1.000000
vn 0.000000 0.000000 -1.000000
vn 0.000000 0.000000 -1.000000
vn 0.000000 0.000000 -1.000000
vn -0.195090 0.980785 0.000000
vn -0.195090 0.980785 0.000000
vn -0.195090 0.980785 0.000000
vn -0.195090 0.980785 0.000000
vn 0.000000 -0.000000 1.000000
vn 0.000000 -0.000000 1.000000
vn 0.000000 -0.000000 1.000000
vn 0.000000 -0.000000 1.000000
vn 0.831470 -0.555570 -0.000000
vn 0.831470 -0.555570 -0.000000
vn 0.831470 -0.555570 -0.000000
vn 0.831470 -0.555570 -0.000000
vn 0.000000 0.000000 -1.000000
vn 0.000000 0.000000 -1.000000
vn 0.000000 0.000000 -1.000000
vn 0.000000 0.000000 -1.000000
vn -0.831470 0.555570 0.000000
vn -0.831470 0.555570 0.000000
vn -0.831470 0.555570 0.000000
vn -0.831470 0.555570 0.000000
vn 0.000000 -0.000000 1.000000
vn 0.000000 -0.000000 1.000000
vn 0.000000 -0.000000 1.000000
vn 0.000000 -0.000000 1.000000
vn 0.980785 0.195091 0.000000
vn 0.980785 0.195091 0.000000
vn 0.980785 0.195091 0.000000
vn 0.980785 0.195091 0.000000
vn 0.000000 0.000000 -1.000000
vn 0.000000 0.000000 -1.000000
vn 0.000000 0.000000 -1.000000
vn 0.000000 0.000000 -1.000000
vn -0.980785 -0.195091 -0.000000
vn -0.980785 -0.195091 -0.000000
vn -0.980785 -0.195091 -0.000000
vn -0.980785 -0.195091 -0.000000
vn 0.000000 -0.000000 1.000000
vn 0.000000 -0.000000 1.000000
vn 0.000000 -0.000000 1.000000
vn 0.000000 -0.000000 1.000000
vn 0.555570 0.831470 0.000000
vn 0.555570 0.831470 0.000000
vn 0.555570 0.831470 0.000000
vn 0.555570 0.831470 0.000000
vn 0.000000 0.000000 -1.000000
vn 0.000000 0.000000 -1.000000
vn 0.000000 0.000000 -1.000000
vn 0.000000 0.000000 -1.000000
vn -0.555570 -0.831470 -0.000000
vn -0.555570 -0.831470 -0.000000
vn -0.555570 -0.831470 -0.000000
vn -0.555570 -0.831470 -0.000000
vn 0.000000 -0.000000 1.000000
vn 0.000000 -0.000000 1.000000
vn 0.000000 -0.000000 1.000000
vn 0.000000 -0.000000 1.000000
vn -0.195091 0.980785 0.000000
vn -0.195091 0.980785 0.000000
vn -0.195091 0.980785 0.000000
vn -0.195091 0.980785 0.000000
vn 0.000000 0.000000 -1.000000
vn 0.000000 0.000000 -1.000000
vn 0.000000 0.000000 -1.000000
vn 0.000000 0.000000 -1.000000
vn 0.195091 -0.980785 -0.000000
vn 0.195091 -0.980785 -0.000000
vn 0.195091 -0.980785 -0.000000
vn 0.195091 -0.980785 -0.000000
vn 0.000000 -0.000000 1.000000
vn 0.000000 -0.000000 1.000000
vn 0.000000 -0.000000 1.000000
vn 0.000000 -0.000000 1.000000
vn -0.831470 0.555570 0.000000
vn -0.831470 0.555570 0.000000
vn -0.831470 0.555570 0.000000
vn -0.831470 0.555570 0.000000
vn 0.000000 0.000000 -1.000000
vn 0.000000 0.000000 -1.000000
vn 0.000000 0.000000 -1.000000
vn 0.000000 0.000000 -1.000000
vn 0.831470 -0.555570 -0.000000
vn 0.831470 -0.555570 -0.000000
vn 0.831470 -0.555570 -0.000000
vn 0.831470 -0.555570 -0.000000
vn 0.000000 -0.000000 1.000000
vn 0.000000 -0.000000 1.000000
vn 0.000000 -0.000000 1.000000
vn 0.000000 -0.000000 1.000000
vn -0.980785 -0.195091 -0.000000
vn -0.980785 -0.195091 -0.000000
vn -0.980785 -0.195091 -0.000000
vn -0.980785 -0.195091 -0.000000
vn 0.000000 0.000000 -1.000000
vn 0.000000 0.000000 -1.000000
vn 0.000000 0.000000 -1.000000
vn 0.000000 0.000000 -1.000000
vn 0.980785 0.195091 0.000000
vn 0.980785 0.195091 0.000000
vn 0.980785 0.195091 0.000000
vn 0.980785 0.195091 0.000000
vn 0.000000 -0.000000 1.000000
vn 0.000000 -0.000000 1.000000
vn 0.000000 -0.000000 1.000000
vn 0.000000 -0.000000 1.000000
vn -0.555570 -0.831470 -0.000000
vn -0.555570 -0.831470 -0.000000
vn -0.555570 -0.831470 -0.000000
vn -0.555570 -0.831470 -0.000000
vn 0.000000 0.000000 -1.000000
vn 0.000000 0.000000 -1.000000
vn 0.000000 0.000000 -1.000000
vn 0.000000 0.000000 -1.000000
vn 0.555570 0.831470 0.000000
vn 0.555570 0.831470 0.000000
vn 0.555570 0.831470 0.000000
vn 0.555570 0.831470 0.000000
s off
g Gear1:pPipe1
usemtl initialShadingGroup
f 2/1/1 1/2/2 17/3/3 18/4/4
f 3/5/5 2/1/6 18/4/7 19/6/8
f 4/7/9 3/5/10 19/6/11 20/8/12
f 5/9/13 4/7/14 20/8/15 21/10/16
f 6/11/17 5/9/18 21/10/19 22/12/20
f 7/13/21 6/11/22 22/12/23 23/14/24
f 8/15/25 7/13/26 23/14/27 24/16/28
f 9/17/29 8/15/30 24/16/31 25/18/32
f 10/19/33 9/17/34 25/18/35 26/20/36
f 11/21/37 10/19/38 26/20/39 27/22/40
f 12/23/41 11/21/42 27/22/43 28/24/44
f 13/25/45 12/23/46 28/24/47 29/26/48
f 14/27/49 13/25/50 29/26/51 30/28/52
f 15/29/53 14/27/54 30/28/55 31/30/56
f 16/31/57 15/29/58 31/30/59 32/32/60
f 1/2/61 16/31/62 32/32/63 17/3/64
f 18/33/65 17/34/66 33/35/67 34/36/68
f 19/37/69 18/33/70 34/36/71 35/38/72
f 20/39/73 19/37/74 35/38/75 36/40/76
f 21/41/77 20/39/78 36/40/79 37/42/80
f 22/43/81 21/41/82 37/42/83 38/44/84
f 23/45/85 22/43/86 38/44/87 39/46/88
f 24/47/89 23/45/90 39/46/91 40/48/92
f 25/49/93 24/47/94 40/48/95 41/50/96
f 26/51/97 25/49/98 41/50/99 42/52/100
f 27/53/101 26/51/102 42/52/103 43/54/104
f 28/55/105 27/53/106 43/54/107 44/56/108
f 29/57/109 28/55/110 44/56/111 45/58/112
f 30/59/113 29/57/114 45/58/115 46/60/116
f 31/61/117 30/59/118 46/60/119 47/62/120
f 32/63/121 31/61/122 47/62/123 48/64/124
f 17/34/125 32/63/126 48/64/127 33/35/128
f 66/65/129 65/66/130 67/67/131 68/68/132
f 35/38/133 34/36/134 50/69/135 51/70/136
f 70/71/137 69/72/138 71/73/139 72/74/140
f 37/42/141 36/40/142 52/75/143 53/76/144
f 74/77/145 73/78/146 75/79/147 76/80/148
f 39/46/149 38/44/150 54/81/151 55/82/152
f 78/83/153 77/84/154 79/85/155 80/86/156
f 41/50/157 40/48/158 56/87/159 57/88/160
f 82/89/161 81/90/162 83/91/163 84/92/164
f 43/54/165 42/52/166 58/93/167 59/94/168
f 86/95/169 85/96/170 87/97/171 88/98/172
f 45/58/173 44/56/174 60/99/175 61/100/176
f 90/101/177 89/102/178 91/103/179 92/104/180
f 47/62/181 46/60/182 62/105/183 63/106/184
f 94/107/185 93/108/186 95/109/187 96/110/188
f 33/35/189 48/64/190 64/111/191 49/112/192
f 50/69/193 49/112/194 1/113/195 2/114/196
f 51/70/197 50/69/198 2/114/199 3/115/200
f 52/75/201 51/70/202 3/115/203 4/116/204
f 53/76/205 52/75/206 4/116/207 5/117/208
f 54/81/209 53/76/210 5/117/211 6/118/212
f 55/82/213 54/81/214 6/118/215 7/119/216
f 56/87/217 55/82/218 7/119/219 8/120/220
f 57/88/221 56/87/222 8/120/223 9/121/224
f 58/93/225 57/88/226 9/121/227 10/122/228
f 59/94/229 58/93/230 10/122/231 11/123/232
f 60/99/233 59/94/234 11/123/235 12/124/236
f 61/100/237 60/99/238 12/124/239 13/125/240
f 62/105/241 61/100/242 13/125/243 14/126/244
f 63/106/245 62/105/246 14/126/247 15/127/248
f 64/111/249 63/106/250 15/127/251 16/128/252
f 49/112/253 64/111/254 16/128/255 1/113/256
f 34/36/257 33/35/258 65/66/259 66/65/260
f 33/35/261 49/112/262 67/67/263 65/66/264
f 49/112/265 50/69/266 68/68/267 67/67/268
f 50/69/269 34/36/270 66/65/271 68/68/272
f 36/40/273 35/38/274 69/72/275 70/71/276
f 35/38/277 51/70/278 71/73/279 69/72/280
f 51/70/281 52/75/282 72/74/283 71/73/284
f 52/75/285 36/40/286 70/71/287 72/74/288
f 38/44/289 37/42/290 73/78/291 74/77/292
f 37/42/293 53/76/294 75/79/295 73/78/296
f 53/76/297 54/81/298 76/80/299 75/79/300
f 54/81/301 38/44/302 74/77/303 76/80/304
f 40/48/305 39/46/306 77/84/307 78/83/308
f 39/46/309 55/82/310 79/85/311 77/84/312
f 55/82/313 56/87/314 80/86/315 79/85/316
f 56/87/317 40/48/318 78/83/319 80/86/320
f 42/52/321 41/50/322 81/90/323 82/89/324
f 41/50/325 57/88/326 83/91/327 81/90/328
f 57/88/329 58/93/330 84/92/331 83/91/332
f 58/93/333 42/52/334 82/89/335 84/92/336
f 44/56/337 43/54/338 85/96/339 86/95/340
f 43/54/341 59/94/342 87/97/343 85/96/344
f 59/94/345 60/99/346 88/98/347 87/97/348
f 60/99/349 44/56/350 86/95/351 88/98/352
f 46/60/353 45/58/354 89/102/355 90/101/356
f 45/58/357 61/100/358 91/103/359 89/102/360
f 61/100/361 62/105/362 92/104/363 91/103/364
f 62/105/365 46/60/366 90/101/367 92/104/368
f 48/64/369 47/62/370 93/108/371 94/107/372
f 47/62/373 63/106/374 95/109/375 93/108/376
f 63/106/377 64/111/378 96/110/379 95/109/380
f 64/111/381 48/64/382 94/107/383 96/110/384
